<?xml version="1.0" standalone="no"?>
<!DOCTYPE svg PUBLIC "-//W3C//DTD SVG 20010904//EN"
 "http://www.w3.org/TR/2001/REC-SVG-20010904/DTD/svg10.dtd">
<svg version="1.0" xmlns="http://www.w3.org/2000/svg"
 width="944.000000pt" height="1280.000000pt" viewBox="0 0 944.000000 1280.000000"
 preserveAspectRatio="xMidYMid meet">
<metadata>
Created by potrace 1.15, written by Peter Selinger 2001-2017
</metadata>
<g transform="translate(0.000000,1280.000000) scale(0.100000,-0.100000)"
fill="#ff637e" stroke="none">
<path d="M8050 12782 c-42 -20 -80 -75 -80 -112 0 -15 7 -47 16 -71 9 -24 22
-106 29 -181 15 -155 34 -211 87 -253 l35 -27 -14 -102 c-31 -233 -120 -599
-203 -841 -91 -261 -249 -566 -493 -947 l-36 -56 -63 34 c-81 44 -230 92 -338
110 -640 105 -1250 -360 -1340 -1022 l-13 -92 -101 34 c-312 106 -652 183
-1061 239 -157 22 -539 30 -705 16 -201 -18 -488 -82 -751 -167 -114 -37 -627
-259 -729 -316 -95 -53 -187 -127 -278 -223 -64 -68 -97 -96 -127 -105 -163
-51 -542 -231 -671 -317 -171 -115 -226 -229 -174 -365 36 -96 42 -183 31
-463 -11 -269 -18 -335 -76 -715 -19 -124 -46 -317 -60 -430 -40 -334 -64
-454 -175 -880 -106 -406 -211 -715 -335 -985 -20 -44 -86 -195 -145 -335 -59
-140 -134 -313 -165 -385 -114 -263 -136 -403 -91 -585 21 -86 46 -145 136
-325 114 -227 137 -263 279 -437 101 -124 645 -683 791 -812 242 -214 380
-322 625 -488 385 -262 1021 -626 1370 -786 39 -17 140 -58 225 -91 85 -32
173 -66 195 -75 45 -18 338 -89 430 -105 33 -5 148 -25 255 -45 441 -78 499
-83 773 -62 292 23 369 34 463 66 211 71 257 126 821 965 255 379 450 622 773
963 234 247 360 367 545 519 88 72 257 215 375 319 118 103 259 222 312 265
109 87 382 276 444 307 23 12 56 33 73 48 24 20 48 28 99 34 136 15 181 65
234 257 19 70 22 111 25 388 l4 310 59 116 c100 200 105 222 105 514 0 239 -1
255 -28 370 -48 205 -75 298 -120 416 -24 63 -68 186 -97 274 -39 113 -88 228
-171 395 -111 224 -125 247 -299 485 -257 353 -310 416 -519 626 -132 131
-263 248 -448 399 l-261 213 81 77 c136 128 244 296 306 472 152 436 46 895
-280 1218 l-91 89 85 148 c323 565 413 776 537 1268 52 207 87 388 105 545 5
49 9 57 36 69 16 7 37 27 45 44 14 26 15 39 4 84 -8 36 -9 97 -4 190 5 115 4
144 -10 176 -52 125 -164 186 -256 139z"/>
</g>
</svg>
