<?xml version="1.0" standalone="no"?>
<!DOCTYPE svg PUBLIC "-//W3C//DTD SVG 20010904//EN"
 "http://www.w3.org/TR/2001/REC-SVG-20010904/DTD/svg10.dtd">
<svg version="1.0" xmlns="http://www.w3.org/2000/svg"
 width="1280.000000pt" height="1280.000000pt" viewBox="0 0 1280.000000 1280.000000"
 preserveAspectRatio="xMidYMid meet">
<metadata>
Created by potrace 1.15, written by Peter Selinger 2001-2017
</metadata>
<g transform="translate(0.000000,1280.000000) scale(0.100000,-0.100000)"
fill="#b342c2" stroke="none">
<path d="M6120 12790 l-65 -7 95 -2 95 -3 -105 -15 c-125 -18 -124 -18 -225
-14 l-80 3 99 14 c54 7 101 16 105 20 11 11 -465 -37 -592 -61 -62 -11 -67
-13 -32 -15 35 -1 30 -4 -40 -20 -44 -10 -91 -23 -105 -28 -14 -5 -45 -6 -70
-3 l-45 6 70 14 c39 8 65 16 59 18 -25 8 -501 -100 -544 -123 -49 -27 -230
-84 -266 -84 -46 0 -221 -59 -404 -135 -74 -31 -173 -72 -220 -90 -111 -43
-324 -145 -480 -229 -118 -64 -169 -97 -127 -83 32 12 17 -1 -40 -33 -32 -18
-91 -55 -130 -82 -66 -44 -78 -48 -74 -26 5 33 -547 -369 -774 -563 -280 -239
-734 -721 -901 -955 -16 -23 -79 -111 -140 -195 -121 -167 -208 -300 -196
-298 22 4 18 -8 -26 -73 -27 -40 -64 -99 -82 -130 -31 -56 -46 -75 -34 -43 35
91 -139 -224 -226 -410 -29 -60 -67 -148 -85 -195 -18 -47 -58 -145 -89 -218
-67 -160 -136 -370 -136 -412 0 -32 -68 -241 -82 -250 -12 -9 -120 -470 -117
-504 1 -6 7 9 14 34 l13 45 3 -40 c3 -49 4 -40 -25 -160 -22 -91 -25 -96 -26
-55 l-2 45 -9 -40 c-9 -45 -56 -460 -62 -547 -5 -82 6 -61 19 35 l11 82 3 -70
c4 -105 4 -121 -13 -235 l-15 -105 -2 100 -3 100 -7 -75 c-10 -100 -10 -419 0
-495 l7 -60 3 60 c2 60 2 60 17 -40 17 -122 18 -130 14 -230 l-3 -80 -9 60
c-4 33 -11 80 -14 103 -4 24 -9 42 -11 39 -12 -11 58 -642 72 -656 2 -2 5 13
5 35 1 34 3 31 14 -26 7 -36 20 -83 27 -105 8 -23 12 -60 9 -85 l-5 -45 -13
50 -13 50 5 -49 c9 -84 81 -365 135 -521 29 -82 54 -170 57 -195 6 -67 28
-136 103 -330 121 -309 169 -421 271 -625 87 -176 181 -342 165 -292 -9 28 2
20 20 -16 9 -17 44 -74 77 -126 33 -51 61 -103 62 -115 2 -48 292 -455 521
-731 126 -152 589 -619 604 -610 6 4 9 2 8 -4 -4 -16 184 -176 383 -326 260
-196 460 -327 476 -311 3 3 37 -17 77 -43 39 -26 97 -63 129 -81 58 -32 71
-44 40 -34 -36 12 81 -58 219 -130 144 -76 303 -149 413 -191 33 -13 110 -44
170 -70 153 -64 393 -145 435 -145 19 0 91 -21 160 -46 173 -64 575 -166 643
-163 12 0 -16 9 -63 20 -114 26 -116 27 -35 23 39 -1 106 -12 149 -23 44 -12
89 -22 100 -23 12 0 1 -4 -24 -7 -38 -5 -21 -10 115 -28 183 -26 505 -57 512
-49 3 2 -15 7 -39 11 -23 3 -70 10 -103 14 l-60 9 80 3 c101 4 100 4 225 -14
l105 -15 -95 -2 c-89 -3 -85 -4 68 -13 99 -6 237 -6 350 -1 179 9 183 9 92 15
-52 3 -81 6 -64 7 17 1 69 8 115 16 55 9 114 11 169 7 l85 -6 -71 -8 c-65 -7
-143 -24 -119 -26 45 -4 644 65 654 75 2 2 -16 4 -40 5 -38 0 -30 4 56 25 120
29 111 28 160 25 l40 -3 -45 -13 c-25 -7 -40 -13 -34 -14 31 -3 463 96 480
110 21 17 245 89 276 89 40 0 282 81 433 145 61 26 148 62 195 80 119 46 276
121 443 211 142 77 200 113 165 101 -29 -10 -20 1 15 19 17 9 74 44 126 77 51
33 105 62 119 63 37 4 271 163 552 376 223 169 715 644 904 872 242 293 527
693 520 729 -2 11 18 50 45 91 26 39 63 97 81 128 32 59 44 72 34 41 -3 -10
10 7 30 37 50 77 215 411 277 560 159 387 229 582 229 640 0 29 55 201 85 265
16 36 43 140 84 325 37 169 48 256 17 135 l-23 -90 4 70 c4 93 49 286 54 235
6 -56 50 271 74 550 9 105 -3 82 -19 -36 l-14 -99 -3 75 c-4 96 -3 114 14 240
l15 105 2 -105 3 -105 7 75 c10 98 10 465 0 555 l-7 70 -3 -100 -2 -100 -15
105 c-17 126 -18 144 -14 240 l4 75 13 -80 13 -80 -5 110 c-5 106 -51 505 -60
514 -2 2 -4 -16 -5 -40 0 -38 -4 -30 -25 56 -29 120 -28 111 -24 160 l2 40 13
-50 c19 -71 18 -29 -1 63 -28 141 -94 406 -102 412 -15 10 -82 220 -82 257 0
45 -59 221 -135 403 -31 74 -68 164 -81 199 -13 34 -50 118 -81 185 -85 184
-263 514 -240 444 11 -33 -1 -18 -33 40 -18 31 -55 89 -81 129 -54 79 -57 88
-31 79 14 -5 14 -4 -2 9 -11 8 -17 15 -13 15 18 0 -209 324 -396 565 -169 219
-593 659 -822 855 -214 182 -778 593 -774 562 4 -22 -8 -18 -73 26 -40 27 -99
64 -130 82 -54 30 -77 49 -43 36 68 -26 -88 60 -340 186 -131 66 -311 144
-560 243 -190 75 -285 105 -331 105 -35 0 -245 67 -255 82 -6 10 -360 95 -426
102 -32 4 -40 3 -23 -3 22 -7 20 -8 -17 -12 -24 -3 -53 -1 -65 4 -13 5 -61 17
-108 27 -79 17 -82 19 -40 21 41 1 38 3 -32 14 -126 22 -440 55 -499 54 -54
-2 -54 -2 26 -14 l80 -12 -70 -2 c-146 -3 -107 -37 77 -68 l103 -17 -103 -12
c-57 -7 -109 -18 -116 -23 -9 -8 -22 -7 -44 4 -39 20 -155 45 -209 45 -83 0
-42 17 55 22 97 6 132 13 132 28 0 13 -35 22 -135 35 l-90 13 95 2 95 3 -75 7
c-93 9 -472 9 -560 0z m23 -87 c98 -6 145 -23 65 -23 -54 0 -170 -25 -209 -44
-26 -13 -34 -13 -64 0 -19 7 -73 17 -122 21 l-88 7 103 17 c57 10 115 22 130
28 15 6 41 8 57 5 17 -2 74 -7 128 -11z m-996 -49 c-3 -3 -12 -4 -19 -1 -8 3
-5 6 6 6 11 1 17 -2 13 -5z m2530 0 c-3 -3 -12 -4 -19 -1 -8 3 -5 6 6 6 11 1
17 -2 13 -5z m-2332 -26 l90 0 -111 -28 c-60 -15 -134 -39 -164 -53 -39 -19
-58 -23 -67 -16 -7 7 -49 10 -103 8 -101 -4 -98 -2 45 37 55 15 118 35 140 45
22 9 49 15 60 12 11 -3 61 -6 110 -5z m2325 -22 c25 -10 85 -28 134 -41 49
-13 90 -26 91 -27 2 -2 -37 -1 -87 1 -52 2 -94 -1 -100 -7 -7 -7 -28 -2 -64
15 -29 13 -104 37 -165 52 l-111 28 128 -2 c92 -2 142 -7 174 -19z m-1680 -31
c33 -17 181 -45 249 -46 37 -1 26 -5 -55 -19 -121 -21 -191 -43 -239 -76 -35
-23 -36 -23 -56 -6 -30 29 -85 43 -199 49 l-105 6 110 23 c110 23 221 58 240
75 13 12 21 11 55 -6z m900 -5 c40 -20 262 -79 310 -81 14 -1 -20 -5 -75 -9
-121 -9 -180 -24 -210 -54 l-22 -22 -26 22 c-38 33 -127 63 -246 84 -104 18
-105 18 -46 19 79 2 206 25 242 44 15 8 29 15 31 16 1 1 21 -8 42 -19z m-1653
-110 c100 -4 119 -7 88 -13 -139 -28 -304 -95 -357 -145 -22 -21 -28 -22 -28
-9 0 36 -43 49 -150 45 -55 -1 -100 -3 -100 -2 0 1 57 20 128 43 70 23 159 59
197 79 61 32 72 35 82 22 9 -11 41 -16 140 -20z m2557 -6 c42 -20 127 -54 189
-75 l112 -38 -98 -1 c-88 0 -100 -2 -120 -23 l-22 -22 -57 36 c-50 32 -207 89
-318 116 -25 6 -4 9 77 9 86 0 117 4 135 17 13 9 24 16 24 16 1 1 36 -15 78
-35z m-3169 16 c-11 -5 -60 -23 -110 -41 -49 -17 -118 -46 -152 -64 -35 -18
-63 -28 -63 -22 0 6 -22 8 -61 4 -33 -3 -59 -4 -57 -2 2 2 40 17 84 34 44 16
110 42 145 59 40 18 77 28 95 25 16 -2 49 0 74 6 58 11 70 12 45 1z m3645 -6
c51 -3 94 -15 200 -59 74 -30 140 -57 145 -59 6 -2 -18 -1 -52 2 -40 3 -63 1
-63 -5 0 -6 -28 4 -62 22 -35 18 -103 47 -153 64 -100 36 -147 56 -105 45 14
-4 54 -8 90 -10z m-1250 -173 c59 -26 183 -63 300 -89 45 -10 44 -10 -29 -11
-153 -2 -266 -38 -306 -97 l-20 -29 -30 34 c-16 19 -62 50 -101 68 -71 34
-227 73 -293 73 -60 0 -28 9 73 20 124 14 218 43 259 80 l32 29 25 -24 c14
-13 54 -37 90 -54z m-1095 49 c35 -39 196 -79 360 -91 11 -1 -7 -5 -40 -10
-213 -30 -394 -116 -395 -187 0 -9 -9 2 -19 25 -33 71 -142 112 -304 114 l-82
0 130 33 c149 38 247 76 290 111 37 30 38 30 60 5z m-1587 -70 c26 1 67 5 92
10 58 11 64 5 9 -10 -72 -20 -241 -98 -309 -145 -62 -42 -65 -43 -73 -23 -7
19 -13 20 -85 16 -60 -4 -72 -3 -52 6 76 32 271 128 304 149 34 21 42 23 54
11 8 -8 33 -14 60 -14z m4397 -79 c66 -31 131 -62 145 -68 20 -9 9 -10 -52 -6
-73 6 -78 5 -86 -16 l-8 -21 -34 25 c-59 44 -158 96 -259 136 l-96 38 81 -6
c65 -5 83 -3 95 10 12 13 18 12 54 -10 22 -14 94 -50 160 -82z m-3773 16 c34
-22 118 -37 206 -38 l77 0 -70 -19 c-158 -41 -304 -111 -374 -178 l-39 -37
-10 26 c-19 51 -54 64 -179 64 -62 0 -113 1 -113 2 0 1 37 13 83 28 113 37
294 126 342 168 36 31 41 33 47 17 4 -11 17 -25 30 -33z m-1128 4 c-44 -21
-112 -56 -150 -77 -38 -21 -80 -39 -94 -39 -14 -1 -36 -4 -50 -8 -14 -4 40 26
120 67 80 42 156 76 170 76 14 1 34 5 45 10 11 5 25 9 30 9 6 0 -26 -17 -71
-38z m4231 -77 c50 -23 130 -56 180 -74 49 -17 90 -32 92 -33 1 -2 -39 -1 -90
1 -111 4 -162 -11 -193 -56 l-21 -31 -24 26 c-58 63 -208 137 -359 177 l-85
23 110 5 c118 6 176 23 194 57 11 20 13 20 59 -16 26 -20 88 -55 137 -79z
m900 97 c22 -4 103 -40 180 -80 77 -39 129 -68 115 -64 -14 4 -36 7 -50 8 -14
0 -56 18 -94 39 -38 21 -106 56 -150 78 -45 21 -72 36 -61 33 11 -4 38 -10 60
-14z m-5379 -218 c22 3 50 9 64 12 14 4 -22 -19 -80 -50 -58 -30 -142 -82
-187 -115 -54 -38 -83 -54 -83 -44 0 21 -25 28 -61 15 -59 -20 -40 -4 58 52
54 31 129 76 168 101 44 28 72 41 76 34 4 -7 22 -9 45 -5z m438 3 c-11 -28 41
-48 117 -48 39 1 85 4 103 7 17 3 4 -5 -29 -18 -159 -64 -312 -156 -385 -232
l-35 -36 -5 33 c-7 45 -39 60 -115 54 -33 -3 -69 -8 -80 -12 -11 -3 34 22 100
56 115 59 307 180 320 200 9 15 15 12 9 -4z m1860 -65 c51 -54 201 -104 351
-117 l80 -8 -115 -22 c-126 -25 -169 -38 -251 -79 -75 -38 -127 -81 -160 -133
l-27 -43 -7 31 c-8 38 -61 92 -115 120 -51 26 -143 47 -245 56 l-80 7 60 14
c219 49 426 158 451 236 7 21 8 21 19 -5 6 -15 24 -41 39 -57z m3024 -18 c46
-30 136 -82 200 -115 64 -33 106 -57 92 -54 -14 3 -50 9 -80 12 -71 7 -103 -9
-110 -54 l-5 -33 -35 36 c-73 76 -226 168 -385 232 -35 14 -47 21 -28 18 18
-4 66 -7 108 -7 59 0 81 4 96 18 11 10 17 24 14 32 -3 8 6 5 22 -8 16 -12 65
-46 111 -77z m306 80 c23 -4 41 -2 45 5 4 7 32 -6 76 -34 39 -25 114 -70 168
-101 98 -56 117 -72 58 -52 -36 13 -61 6 -61 -15 0 -9 -29 6 -80 42 -44 31
-128 83 -188 115 -59 32 -96 56 -82 52 14 -3 42 -9 64 -12z m-2050 -143 c58
-28 148 -62 211 -78 l110 -29 -80 -7 c-102 -9 -194 -30 -245 -56 -54 -28 -107
-82 -115 -120 l-7 -31 -27 43 c-64 100 -209 175 -410 213 -47 8 -86 17 -87 18
-2 2 43 8 99 14 167 19 307 77 345 143 l16 28 44 -45 c28 -28 81 -62 146 -93z
m-2412 -48 c6 -12 36 -34 66 -49 48 -23 71 -28 181 -32 l126 -6 -67 -17 c-200
-51 -395 -165 -480 -282 -28 -39 -28 -39 -28 -11 0 92 -127 156 -277 141 -35
-4 -63 -5 -63 -2 0 2 24 12 53 22 150 49 370 175 438 251 24 27 35 34 37 23 2
-8 8 -25 14 -38z m3479 -88 c78 -51 224 -122 307 -148 28 -10 52 -19 52 -21 0
-3 -28 -2 -63 2 -67 6 -148 -7 -203 -33 -39 -19 -74 -70 -74 -109 0 -25 -2
-24 -40 24 -78 99 -240 200 -400 249 -149 46 -141 42 -80 36 78 -7 207 12 260
39 25 12 54 36 65 53 l20 31 42 -38 c24 -22 75 -60 114 -85z m-4930 -49 c29 0
68 4 84 8 17 4 -2 -10 -42 -32 -144 -80 -308 -200 -352 -259 l-21 -27 6 31 c8
41 -14 58 -64 51 -20 -3 -46 -8 -57 -13 -11 -4 41 34 115 84 74 49 164 115
200 144 59 50 65 53 71 34 4 -18 13 -21 60 -21z m6544 -168 c66 -44 111 -76
100 -72 -78 28 -131 13 -121 -36 4 -24 -1 -21 -57 32 -80 77 -190 156 -297
214 -47 25 -71 42 -55 38 17 -5 55 -8 85 -8 49 0 55 2 58 22 3 19 11 15 85
-45 45 -36 136 -102 202 -145z m-6890 193 c51 19 36 4 -53 -53 -48 -31 -120
-83 -160 -117 -48 -40 -72 -55 -72 -44 0 12 -6 15 -27 10 -27 -6 -27 -5 -8 9
11 8 79 57 150 108 72 52 133 90 136 85 3 -5 17 -4 34 2z m6890 -2 c19 -8 28
-9 33 -1 6 9 180 -109 292 -198 21 -17 22 -18 3 -9 -30 14 -43 13 -43 -5 0
-10 -25 6 -67 41 -36 31 -107 83 -157 116 -50 33 -93 62 -95 64 -8 8 8 4 34
-8z m-6062 -172 c25 -18 42 -21 138 -21 73 0 102 -3 87 -9 -197 -76 -382 -202
-486 -331 l-32 -40 0 46 c0 36 -5 51 -26 70 -23 22 -34 24 -114 24 l-88 0 82
43 c123 66 241 149 325 228 l76 72 5 -31 c3 -17 17 -39 33 -51z m5493 -107
c44 -30 120 -76 170 -104 l91 -50 -88 0 c-79 0 -90 -2 -113 -24 -20 -19 -26
-34 -26 -68 l0 -43 -81 84 c-44 46 -113 107 -154 135 -62 44 -203 116 -283
147 -15 6 14 9 87 9 95 0 113 3 138 21 18 14 29 32 31 53 l3 32 74 -69 c40
-39 108 -94 151 -123z m-3441 -78 c79 -69 256 -133 410 -148 l70 -7 -80 -13
c-176 -30 -345 -106 -438 -196 -50 -49 -93 -112 -103 -151 -8 -32 -24 -34 -24
-3 -1 37 -36 103 -79 146 -76 76 -198 122 -364 137 l-79 7 89 23 c227 58 454
196 505 309 11 24 11 24 33 -23 12 -26 39 -62 60 -81z m1315 -4 c91 -82 250
-159 413 -201 l89 -23 -79 -7 c-156 -14 -262 -51 -350 -122 -43 -35 -93 -121
-93 -161 0 -33 -17 -28 -25 7 -4 17 -26 56 -50 88 -101 133 -274 220 -520 260
l-50 8 70 7 c158 15 334 80 413 151 22 20 48 56 58 80 l18 43 26 -41 c15 -22
50 -63 80 -89z m-4568 16 c-5 -25 -3 -26 29 -20 19 3 43 9 54 13 11 4 -21 -23
-72 -59 -50 -37 -134 -108 -186 -159 -90 -88 -95 -91 -90 -60 5 28 3 32 -16
32 -12 0 -32 -5 -44 -11 -30 -16 -15 -2 73 69 41 33 116 96 165 140 50 44 91
81 91 81 1 1 -1 -11 -4 -26z m7924 -224 c55 -42 69 -58 35 -39 -11 5 -30 10
-42 10 -19 0 -21 -4 -16 -35 l6 -35 -51 55 c-55 60 -170 159 -263 225 -33 24
-51 40 -40 36 11 -4 35 -10 54 -13 32 -6 34 -5 29 19 -4 22 16 8 114 -78 66
-58 144 -123 174 -145z m-8076 237 c0 -1 -28 -25 -62 -52 -35 -26 -93 -77
-131 -113 -46 -44 -71 -61 -78 -54 -11 11 207 203 244 215 12 3 23 6 25 7 1 1
2 -1 2 -3z m8105 -110 c78 -67 113 -102 106 -109 -7 -7 -34 13 -84 60 -41 38
-99 89 -130 113 -32 23 -57 44 -57 45 0 2 11 0 24 -3 13 -4 77 -52 141 -106z
m-5976 -54 c45 -64 184 -111 331 -112 l85 -1 -85 -25 c-239 -70 -449 -219
-540 -385 -28 -51 -30 -52 -30 -24 0 56 -21 107 -62 151 -56 61 -109 79 -235
79 -56 0 -99 3 -95 6 4 3 30 14 57 24 194 70 445 247 518 364 l22 36 7 -43 c4
-23 16 -55 27 -70z m3821 -14 c107 -107 285 -219 435 -273 28 -10 53 -21 57
-24 4 -3 -41 -6 -100 -7 -90 0 -114 -4 -154 -23 -85 -41 -137 -120 -138 -206
0 -28 -2 -27 -30 24 -91 166 -301 315 -540 385 l-85 25 85 1 c102 0 196 21
262 57 60 33 88 70 96 126 l5 41 15 -24 c9 -14 50 -59 92 -102z m-5470 72
c-18 -62 37 -86 150 -67 l45 7 -61 -33 c-130 -71 -316 -228 -396 -336 l-26
-34 5 47 c4 36 2 51 -12 66 -20 22 -67 26 -111 10 -44 -17 -38 -4 11 25 71 41
241 181 325 267 41 43 76 78 77 78 1 0 -2 -13 -7 -30z m7271 -242 c42 -31 93
-67 113 -79 42 -24 42 -35 2 -19 -44 16 -91 12 -111 -10 -14 -15 -16 -30 -12
-66 l5 -47 -26 34 c-80 108 -265 264 -396 336 -60 33 -60 33 -21 27 119 -21
173 3 155 67 -8 26 8 14 103 -78 62 -59 146 -134 188 -165z m-6734 -33 c0 -56
24 -92 79 -120 31 -16 59 -20 134 -20 l95 0 -105 -51 c-180 -87 -358 -242
-441 -383 l-37 -62 -4 75 c-3 66 -7 79 -32 105 -41 43 -75 54 -159 49 l-74 -3
75 43 c162 92 322 224 412 341 30 39 55 71 56 71 0 0 1 -20 1 -45z m5978 -43
c87 -110 244 -237 400 -326 l72 -41 -74 3 c-84 5 -118 -6 -159 -49 -25 -26
-29 -39 -32 -105 l-4 -75 -37 62 c-84 143 -259 294 -441 383 l-105 51 95 0
c75 0 103 4 134 20 55 28 79 64 79 120 0 25 3 42 7 38 3 -4 32 -41 65 -81z
m-7372 58 c-6 -23 8 -26 40 -9 12 7 -15 -23 -60 -65 -45 -42 -119 -116 -164
-164 -45 -48 -77 -77 -70 -65 16 31 14 46 -6 40 -13 -3 242 269 264 282 0 1
-1 -8 -4 -19z m8910 -206 c34 -32 54 -55 45 -51 -24 8 -31 -8 -17 -35 7 -13
-18 9 -55 49 -37 40 -108 111 -159 159 -51 48 -82 82 -70 75 32 -16 46 -14 40
9 -3 10 31 -19 75 -65 43 -46 107 -110 141 -141z m-8735 99 c-22 -57 26 -78
107 -47 11 4 -9 -14 -45 -41 -92 -68 -222 -197 -293 -290 -33 -44 -57 -71 -53
-60 17 45 18 91 2 104 -15 13 -26 12 -71 -4 -11 -4 -4 5 15 21 60 48 270 257
308 306 19 26 37 46 39 45 1 -2 -3 -17 -9 -34z m8501 -146 c64 -65 137 -135
163 -155 26 -19 46 -37 45 -39 -2 -1 -17 3 -34 9 -57 22 -78 -26 -47 -107 4
-11 -20 16 -53 60 -71 93 -201 222 -293 290 -36 27 -56 45 -45 41 45 -17 91
-18 104 -2 13 15 12 26 -4 71 -4 11 5 4 21 -15 15 -19 80 -88 143 -153z
m-5049 -90 c0 -38 47 -115 105 -172 100 -101 259 -171 452 -198 l87 -13 -79
-12 c-417 -65 -711 -400 -641 -732 56 -267 306 -473 646 -531 l75 -13 -60 -7
c-153 -20 -345 -107 -470 -215 -115 -97 -227 -274 -256 -401 -7 -29 -15 -53
-18 -53 -4 0 -12 28 -18 63 -7 34 -33 105 -59 157 -39 79 -61 109 -134 181
-70 70 -103 95 -171 127 -92 45 -170 67 -269 78 l-65 7 85 23 c276 73 524 270
630 499 48 102 60 155 60 254 0 270 -211 465 -528 489 l-86 7 98 27 c177 50
335 136 450 247 66 63 131 157 141 203 5 23 9 27 16 17 5 -8 9 -22 9 -32z
m1518 -88 c16 -24 57 -69 89 -100 132 -129 298 -211 548 -273 5 -2 -28 -6 -75
-9 -283 -23 -476 -173 -524 -407 -12 -63 -13 -64 -19 -30 -11 54 -70 168 -121
232 -113 141 -335 257 -543 284 l-58 7 95 18 c129 24 191 44 282 91 144 75
225 168 253 293 l7 30 17 -46 c10 -25 32 -66 49 -90z m-4638 78 c-22 -100 50
-155 170 -129 35 8 41 8 26 -1 -217 -134 -356 -273 -483 -483 -8 -15 -9 -8 -1
29 24 118 -36 194 -133 167 -18 -5 -34 -8 -35 -7 -2 1 33 29 78 62 103 76 247
220 323 323 33 45 60 80 62 79 1 -2 -2 -19 -7 -40z m7734 -37 c74 -99 232
-257 328 -328 42 -31 76 -58 74 -59 -1 -1 -17 2 -36 7 -97 28 -158 -50 -132
-170 8 -35 8 -41 -1 -26 -131 215 -264 348 -483 483 -15 9 -9 9 26 1 126 -27
197 35 167 147 -10 36 -13 39 57 -55z m972 -86 c55 -64 102 -127 106 -141 8
-30 12 -34 -85 82 -41 50 -91 105 -111 124 -26 25 -32 37 -23 43 6 4 13 8 13
8 1 0 46 -52 100 -116z m-9616 98 c0 -3 -31 -37 -69 -77 -37 -40 -87 -97 -111
-128 -23 -32 -43 -57 -45 -57 -1 0 -1 9 0 19 2 25 191 248 210 248 8 0 15 -2
15 -5z m50 -91 c-5 -11 -10 -30 -10 -42 0 -19 4 -21 35 -16 l35 6 -55 -51
c-60 -55 -159 -170 -225 -263 -24 -33 -40 -51 -36 -40 4 11 10 35 13 54 6 32
5 34 -19 29 -22 -4 -8 16 78 114 58 66 123 144 145 174 42 55 58 69 39 35z
m9471 -76 c40 -49 105 -126 146 -171 64 -71 70 -81 46 -76 -25 5 -26 3 -20
-29 3 -19 9 -43 13 -54 4 -11 -23 21 -59 72 -37 50 -108 134 -159 186 -88 90
-91 95 -60 90 28 -5 32 -3 32 16 0 12 -5 32 -11 44 -15 29 -14 27 72 -78z
m-6873 24 c1 -62 40 -147 83 -184 85 -71 216 -115 348 -115 l76 -1 -104 -34
c-277 -93 -501 -288 -595 -520 l-23 -55 -6 63 c-17 182 -126 299 -309 328 -35
6 -83 7 -108 4 -58 -9 -52 -4 45 34 137 55 294 160 406 272 64 64 142 170 164
223 8 20 17 36 18 36 2 0 4 -23 5 -51z m4222 27 c0 -24 102 -167 164 -230 115
-117 304 -238 471 -303 28 -11 28 -12 -15 -7 -25 3 -73 1 -108 -5 -176 -28
-285 -139 -308 -310 l-7 -51 -36 73 c-65 130 -181 258 -309 343 -77 52 -226
120 -307 141 l-70 18 100 6 c249 17 403 130 407 300 1 26 5 46 10 43 4 -3 8
-11 8 -18z m-6650 -220 c-16 -44 -12 -91 10 -111 15 -14 30 -16 66 -12 l47 5
-34 -26 c-118 -91 -264 -262 -334 -392 l-35 -65 7 45 c20 114 -5 168 -69 149
-27 -7 -20 3 60 84 101 102 216 242 258 312 28 49 41 55 24 11z m9085 -11 c42
-72 179 -239 267 -326 58 -57 74 -77 54 -69 -53 20 -93 -30 -81 -100 3 -19 8
-48 11 -65 4 -23 -3 -15 -29 31 -72 132 -229 316 -336 396 l-34 26 47 -5 c66
-8 90 15 83 77 -2 25 -8 53 -12 63 -14 33 3 17 30 -28z m-7827 -110 c0 -87 29
-147 91 -186 60 -38 100 -49 191 -49 l75 0 -58 -24 c-230 -95 -448 -313 -543
-543 l-24 -58 0 75 c0 91 -11 131 -49 191 -39 63 -99 91 -188 91 l-66 -1 56
32 c183 102 396 315 484 484 16 29 29 53 30 53 1 0 1 -29 1 -65z m6652 -107
c94 -130 270 -289 406 -364 l56 -32 -79 -3 c-66 -3 -86 -9 -121 -32 -65 -42
-95 -110 -100 -225 l-4 -93 -22 53 c-94 230 -313 450 -542 543 l-55 23 93 4
c80 3 101 8 147 33 79 43 105 88 110 188 l3 79 32 -56 c17 -31 51 -84 76 -118z
m-8480 103 c-14 -27 -13 -41 5 -41 9 0 -8 -28 -45 -72 -34 -40 -86 -112 -117
-160 -57 -89 -72 -104 -53 -53 8 20 8 30 0 35 -7 4 3 25 27 56 22 27 72 95
112 152 69 96 95 127 71 83z m10309 -137 c66 -90 104 -152 98 -156 -8 -5 -7
-15 1 -34 25 -53 5 -31 -65 74 -39 59 -95 133 -124 166 -39 43 -47 57 -31 52
25 -8 28 3 11 37 -19 36 -4 17 110 -139z m-10259 -108 c-24 -65 -3 -114 44
-102 19 5 12 -6 -33 -53 -73 -75 -158 -194 -216 -301 -25 -47 -42 -71 -38 -55
5 17 8 55 8 85 0 49 -2 55 -22 58 -20 3 -16 12 48 90 39 48 103 137 142 198
40 62 73 111 75 109 1 -1 -2 -14 -8 -29z m10312 -283 c60 -74 64 -82 45 -85
-20 -3 -22 -9 -22 -58 0 -30 3 -68 8 -85 4 -17 -10 1 -31 40 -72 134 -141 230
-230 322 -46 48 -48 52 -23 47 49 -10 64 43 36 121 -4 11 28 -34 72 -100 43
-66 109 -157 145 -202z m-9450 182 c-5 -86 6 -119 49 -161 26 -25 39 -29 105
-32 l75 -4 -61 -36 c-143 -85 -297 -262 -384 -442 l-51 -105 0 95 c0 75 -4
103 -20 134 -28 56 -64 79 -121 79 -42 0 -45 2 -28 14 154 111 318 305 414
486 14 26 25 47 25 47 0 0 -1 -34 -3 -75z m8488 -120 c86 -125 214 -258 325
-339 18 -13 16 -14 -28 -14 -98 2 -142 -64 -142 -212 l0 -95 -51 105 c-87 180
-241 357 -384 442 l-61 36 75 4 c66 3 79 7 105 32 43 41 54 75 49 159 l-3 74
41 -72 c22 -40 56 -94 74 -120z m-3405 -265 c117 -225 370 -420 638 -490 39
-10 67 -19 60 -19 -123 -6 -283 -55 -378 -115 -181 -116 -279 -276 -321 -521
l-7 -40 -13 65 c-68 332 -359 603 -713 664 l-76 13 59 7 c347 45 633 272 679
541 l11 64 21 -67 c12 -37 30 -83 40 -102z m-6326 121 c-13 -36 -6 -61 15 -61
10 0 -6 -29 -44 -82 -33 -46 -85 -130 -115 -188 -31 -58 -54 -94 -50 -80 15
62 17 91 7 103 -8 9 1 30 34 82 25 39 70 114 101 168 56 98 72 117 52 58z
m10949 -116 c43 -71 86 -142 96 -157 12 -19 14 -28 6 -28 -13 0 -10 -50 5
-110 4 -14 -19 22 -50 80 -30 58 -82 142 -114 187 -53 74 -57 82 -39 87 21 5
22 22 3 81 -8 28 1 14 93 -140z m-10393 6 c0 -81 2 -92 24 -115 19 -21 34 -26
70 -26 l46 0 -40 -32 c-129 -104 -255 -289 -331 -486 -6 -15 -9 14 -9 87 0 95
-3 113 -21 138 -14 18 -32 29 -53 31 l-32 3 74 79 c79 84 175 222 235 337 20
40 37 73 37 73 0 0 0 -40 0 -89z m9904 -175 c29 -43 84 -111 123 -151 l69 -74
-32 -3 c-21 -2 -39 -13 -53 -31 -18 -25 -21 -43 -21 -138 0 -73 -3 -102 -9
-87 -31 80 -103 221 -147 283 -28 41 -89 110 -135 154 l-84 81 43 0 c34 0 49
6 68 26 22 23 24 34 24 113 l0 88 50 -91 c28 -50 74 -126 104 -170z m-7339
-35 c44 -114 127 -200 245 -256 75 -36 194 -65 272 -66 l48 0 -68 -20 c-162
-46 -305 -129 -423 -245 -322 -318 -372 -803 -114 -1113 110 -132 262 -213
465 -247 l40 -7 -69 -14 c-91 -19 -172 -52 -261 -108 -381 -237 -521 -763
-314 -1179 120 -240 333 -409 579 -460 l65 -13 -40 -7 c-202 -34 -356 -116
-467 -249 -255 -307 -205 -790 114 -1109 114 -115 263 -201 425 -247 l68 -20
-48 0 c-80 -1 -198 -30 -277 -68 -157 -75 -268 -237 -270 -393 0 -31 -5 -25
-49 65 -122 252 -344 458 -595 551 l-61 23 50 1 c118 2 223 47 311 134 285
285 182 902 -205 1222 -76 63 -184 122 -266 144 l-59 17 69 13 c235 44 420
238 511 535 26 84 28 101 28 275 0 174 -2 191 -28 275 -52 171 -137 313 -243
404 -65 56 -193 119 -273 133 l-65 11 47 13 c338 87 625 481 645 884 18 352
-183 616 -472 620 l-50 1 82 33 c248 102 499 354 589 592 l29 75 7 -73 c4 -41
16 -98 28 -127z m4693 102 c91 -224 343 -471 580 -569 l82 -33 -50 -1 c-224
-3 -408 -172 -459 -422 -9 -42 -16 -96 -17 -120 0 -40 -2 -37 -25 41 -93 316
-339 562 -655 655 l-84 25 55 1 c196 2 404 114 483 258 30 55 57 150 57 201 0
43 2 41 33 -36z m-8073 -98 c-6 -16 -9 -34 -6 -42 3 -7 -9 -37 -26 -66 -17
-28 -53 -97 -80 -152 -27 -55 -46 -91 -43 -80 4 11 9 36 12 55 3 19 37 99 77
177 66 133 91 172 66 108z m11523 -284 c3 -20 8 -45 11 -56 4 -11 -11 16 -32
61 -22 44 -57 112 -78 150 -21 38 -39 80 -39 94 -1 14 -4 36 -8 50 -4 14 26
-40 66 -119 41 -79 77 -160 80 -180z m-11204 205 c-13 -52 -7 -119 11 -141 7
-8 26 -15 43 -15 l30 0 -50 -52 c-82 -88 -157 -215 -220 -373 -14 -35 -21 -47
-18 -28 4 18 7 66 7 108 0 59 -4 81 -18 96 -10 11 -23 18 -30 15 -7 -3 12 29
42 71 63 87 153 245 185 321 26 63 34 62 18 -2z m10854 -178 c30 -51 76 -122
102 -157 25 -35 42 -60 37 -57 -39 24 -67 -48 -59 -148 l6 -71 -23 55 c-66
157 -148 290 -221 360 l-36 35 33 5 c44 7 60 39 54 110 -3 30 -8 66 -11 80 -3
14 10 -8 29 -47 19 -40 59 -115 89 -165z m-9058 150 c-4 -24 -2 -71 4 -106 29
-183 146 -292 328 -309 l64 -6 -65 -27 c-229 -97 -419 -317 -510 -591 l-35
-104 -1 76 c0 132 -44 263 -115 348 -36 42 -121 81 -182 84 -28 1 -49 5 -46
10 2 4 10 7 17 7 24 0 166 102 229 163 116 115 227 281 283 425 15 39 29 72
31 72 3 0 1 -19 -2 -42z m7183 -38 c57 -145 162 -301 282 -419 65 -64 201
-161 226 -161 7 0 15 -4 18 -8 3 -5 -17 -9 -43 -10 -172 -4 -300 -187 -301
-431 l-1 -76 -37 110 c-21 61 -54 140 -74 176 -107 191 -272 344 -445 414
l-53 22 63 6 c182 17 299 126 328 309 6 35 7 83 4 108 -9 58 -4 52 33 -40z
m-9326 -275 c-4 -69 -3 -75 17 -83 21 -8 21 -8 -8 -47 -47 -64 -98 -165 -142
-276 -22 -57 -38 -93 -35 -79 3 14 8 55 12 93 5 54 4 71 -9 85 -14 16 -12 23
26 88 23 40 65 122 92 183 27 61 50 111 51 111 1 0 -1 -34 -4 -75z m11509 -90
c32 -66 69 -139 83 -161 23 -37 24 -43 9 -48 -14 -6 -15 -19 -10 -99 l5 -92
-24 69 c-33 97 -97 226 -139 280 -19 25 -35 48 -35 50 0 2 10 6 21 9 20 5 21
11 17 84 -4 61 -3 73 6 53 5 -14 36 -79 67 -145z m-10286 37 c0 -91 4 -114 23
-154 42 -84 121 -137 207 -138 28 0 27 -2 -24 -30 -166 -91 -315 -301 -385
-540 l-25 -85 -1 85 c0 102 -21 196 -57 262 -32 59 -68 86 -125 96 l-43 7 37
23 c54 33 163 154 223 246 71 109 115 198 158 319 4 9 8 17 9 17 2 0 3 -48 3
-108z m9020 43 c70 -194 247 -445 364 -518 l36 -22 -43 -7 c-57 -10 -93 -37
-125 -96 -36 -66 -57 -160 -57 -262 l-1 -85 -25 85 c-70 239 -219 449 -385
540 -51 28 -52 30 -24 30 56 0 107 21 151 62 61 56 79 109 79 235 0 56 3 99 6
95 3 -4 14 -29 24 -57z m-10471 -268 c-2 -58 -8 -85 -30 -128 -15 -30 -45
-101 -66 -159 -21 -58 -36 -91 -32 -75 4 17 8 57 10 90 2 45 18 95 61 202 32
79 58 143 58 143 0 0 0 -33 -1 -73z m12000 -195 c4 -7 9 -43 11 -80 1 -37 6
-80 9 -97 4 -16 -9 15 -28 70 -20 55 -53 135 -75 178 -21 42 -34 77 -29 77 7
0 9 23 5 63 l-5 62 52 -130 c28 -71 55 -136 60 -143z m-11220 175 c-15 -150
49 -277 141 -277 28 0 28 0 -11 -28 -115 -83 -221 -261 -275 -459 -24 -89 -34
-106 -26 -48 7 62 -11 213 -32 260 -23 52 -57 85 -88 85 -21 0 -19 3 17 36 79
71 206 292 255 442 10 29 19 52 21 52 3 0 2 -28 -2 -63z m10352 11 c49 -152
175 -370 254 -442 36 -33 38 -36 17 -36 -31 0 -65 -34 -90 -89 -16 -35 -22
-76 -26 -171 l-6 -125 -17 67 c-50 198 -166 396 -281 479 -39 28 -39 29 -13
29 36 0 79 23 100 54 30 46 49 145 42 218 -3 38 -4 68 -2 68 2 0 12 -24 22
-52z m-10811 -311 c0 -125 13 -160 64 -179 l26 -10 -37 -39 c-71 -74 -138
-219 -184 -394 l-23 -90 6 81 c9 128 -24 274 -62 274 -21 0 -20 4 22 57 44 58
120 218 158 331 14 45 27 82 28 82 1 0 2 -51 2 -113z m11368 -184 c26 -51 60
-108 77 -127 31 -35 31 -35 10 -46 -35 -19 -52 -77 -60 -200 -4 -63 -8 -104
-9 -90 -2 44 -75 243 -114 313 -21 37 -55 85 -75 106 l-37 38 30 14 c44 21 59
61 63 169 l4 95 32 -90 c18 -49 54 -131 79 -182z m-11682 12 c-9 -92 1 -164
26 -184 l20 -17 -20 -25 c-35 -42 -87 -166 -115 -275 l-28 -104 0 108 c0 85
-3 114 -17 135 -16 25 -15 28 22 109 22 46 56 136 77 201 20 64 38 116 39 115
1 -2 -1 -30 -4 -63z m6877 -130 c80 -233 256 -431 477 -540 92 -45 215 -84
270 -86 16 0 -10 -9 -60 -19 -111 -23 -154 -38 -257 -91 -86 -45 -219 -162
-282 -248 -51 -69 -112 -197 -137 -287 -12 -43 -24 -86 -26 -94 -3 -8 -13 17
-23 55 -93 362 -376 623 -745 686 l-70 12 72 13 c94 16 161 38 258 86 106 53
158 92 252 192 116 122 186 264 215 433 l13 78 8 -55 c4 -30 20 -91 35 -135z
m5041 55 c23 -69 57 -156 76 -193 33 -66 34 -69 18 -93 -13 -20 -17 -51 -17
-137 0 -82 -3 -102 -9 -77 -27 113 -84 268 -117 318 -37 57 -37 57 -16 74 19
14 21 26 21 126 0 61 1 110 1 109 1 -1 20 -58 43 -127z m-6830 -75 c8 -22 34
-80 59 -128 48 -95 160 -224 251 -291 105 -77 287 -151 404 -163 31 -3 56 -8
53 -10 -2 -2 -44 -12 -92 -22 -165 -34 -311 -111 -437 -230 -147 -139 -250
-335 -275 -526 l-8 -60 -12 70 c-38 215 -154 422 -306 547 -124 102 -231 153
-396 188 -47 10 -73 19 -59 19 45 2 196 49 262 82 194 98 340 244 435 434 39
78 49 105 73 195 l12 45 12 -55 c6 -30 17 -73 24 -95z m3457 -140 c107 -252
331 -465 549 -525 l59 -17 -67 -13 c-271 -51 -480 -305 -540 -655 l-13 -80 -7
64 c-10 91 -66 247 -123 343 -57 94 -173 216 -259 273 -80 52 -194 100 -280
118 l-70 14 40 7 c195 33 330 99 437 214 117 125 175 266 199 480 0 4 11 -29
23 -73 12 -44 36 -112 52 -150z m3592 -67 c28 -86 35 -124 29 -140 -5 -13 -7
-59 -4 -103 6 -93 5 -92 -27 38 -14 54 -36 122 -49 151 -18 40 -22 58 -14 71
5 10 8 57 5 109 -5 91 -5 91 9 41 7 -27 30 -103 51 -167z m-12329 9 c5 -5 -2
-33 -16 -63 -13 -29 -37 -104 -53 -166 l-29 -113 3 85 c1 47 -1 94 -5 106 -5
13 3 49 21 100 15 43 36 112 46 153 l19 74 3 -84 c2 -46 7 -88 11 -92z m10018
-124 c71 -165 190 -318 306 -394 32 -21 72 -41 90 -45 32 -7 31 -7 -27 -26
-184 -60 -310 -252 -360 -548 -8 -47 -14 -75 -15 -62 -1 13 -8 58 -17 100 -58
284 -236 506 -471 587 -56 20 -62 24 -36 24 52 1 147 36 208 76 137 91 233
288 236 485 l0 65 25 -88 c13 -48 40 -127 61 -174z m-7662 21 c38 -131 117
-247 210 -309 61 -40 156 -75 208 -76 26 0 20 -4 -36 -24 -235 -81 -413 -303
-471 -587 -9 -42 -16 -87 -17 -100 -1 -13 -7 15 -15 62 -53 312 -192 511 -389
555 l-30 7 46 17 c179 69 359 311 437 587 l27 98 7 -86 c3 -48 14 -113 23
-144z m10032 54 c-3 -8 -6 -5 -6 6 -1 11 2 17 5 13 3 -3 4 -12 1 -19z m-10947
-248 c41 -148 161 -279 258 -280 30 0 28 -16 -4 -24 -37 -10 -99 -51 -145 -97
-101 -101 -173 -265 -207 -474 l-8 -50 -7 70 c-15 155 -79 331 -148 410 -19
21 -55 48 -81 60 -47 22 -47 22 -23 33 66 30 160 144 222 267 37 73 89 223
100 285 7 42 8 39 18 -55 7 -55 18 -120 25 -145z m9496 -23 c63 -151 171 -293
249 -329 24 -11 24 -11 -23 -33 -26 -12 -62 -39 -81 -60 -69 -79 -133 -255
-148 -410 l-7 -70 -8 50 c-46 282 -164 484 -327 561 l-56 27 47 12 c149 38
242 192 264 438 l7 78 23 -88 c12 -48 39 -128 60 -176z m-10145 -101 c22 -122
92 -226 160 -241 l30 -7 -43 -27 c-106 -67 -189 -240 -224 -466 l-8 -50 -7 75
c-22 204 -92 366 -170 392 -7 2 7 22 33 46 25 24 62 73 82 111 39 75 101 250
113 321 l7 45 8 -70 c4 -38 12 -97 19 -129z m10755 -1 c39 -119 99 -228 152
-276 26 -25 40 -45 33 -47 -79 -26 -151 -193 -168 -392 l-7 -85 -22 115 c-24
126 -38 169 -79 251 -37 72 -88 135 -134 161 l-38 22 47 23 c86 43 133 141
152 320 l12 104 13 -58 c7 -32 25 -94 39 -138z m-11176 -209 c22 -59 52 -98
81 -108 10 -4 6 -12 -17 -34 -17 -16 -42 -49 -57 -74 -32 -55 -74 -201 -85
-295 -9 -78 -11 -75 -31 83 -14 108 -38 184 -71 224 l-27 32 32 42 c42 54 89
186 117 326 l23 111 6 -124 c5 -93 12 -139 29 -183z m11595 114 c35 -127 63
-196 100 -244 l33 -44 -24 -23 c-36 -34 -62 -115 -82 -257 l-18 -127 -7 65
c-15 149 -69 298 -133 364 -20 20 -35 39 -33 40 2 2 14 9 27 15 51 27 91 154
93 299 1 82 2 84 11 42 5 -25 20 -83 33 -130z m282 -125 c14 -60 37 -136 52
-167 15 -32 24 -58 20 -58 -21 0 -51 -135 -61 -280 -2 -23 -9 -2 -20 66 -19
114 -49 203 -82 241 l-22 26 22 22 c31 32 45 84 52 205 3 58 8 94 10 80 2 -14
15 -74 29 -135z m-12173 -100 c9 -22 24 -47 33 -57 14 -16 13 -20 -9 -46 -31
-37 -65 -144 -81 -258 l-13 -89 -7 81 c-8 100 -34 219 -51 233 -10 8 -7 23 15
68 24 51 77 246 80 299 1 10 5 -28 9 -87 5 -58 15 -123 24 -144z m-198 102
c-8 -32 11 -196 24 -212 8 -10 7 -22 -5 -45 -21 -40 -45 -151 -45 -207 0 -83
-17 -41 -25 60 -10 152 -10 163 14 277 12 58 24 115 27 128 2 12 7 22 10 22 4
0 4 -10 0 -23z m12550 -164 c20 -92 23 -120 15 -151 -6 -21 -11 -67 -12 -103
-2 -76 -17 -129 -18 -62 -1 52 -26 171 -45 218 -13 31 -13 39 0 70 7 19 14 50
14 68 0 19 3 56 7 83 6 40 8 43 11 19 2 -16 14 -81 28 -142z m-7155 -768 c62
-206 206 -393 391 -508 97 -61 182 -95 292 -118 97 -20 118 -29 64 -29 -46 0
-170 -32 -245 -64 -116 -49 -187 -97 -288 -200 -83 -83 -109 -117 -147 -191
-49 -97 -65 -140 -83 -225 l-12 -55 -12 45 c-74 279 -252 499 -508 629 -66 33
-217 80 -262 82 -14 0 12 9 59 19 143 30 217 60 320 130 201 137 337 351 382
605 l12 70 8 -60 c4 -33 17 -91 29 -130z m3510 -60 c88 -263 272 -443 496
-486 l68 -12 -47 -13 c-181 -46 -367 -196 -492 -396 -51 -82 -110 -219 -121
-280 -8 -44 -25 -41 -25 4 0 52 -30 149 -72 238 -33 68 -57 100 -127 170 -118
118 -250 183 -416 206 l-50 6 80 20 c154 36 321 138 425 258 111 128 201 324
217 472 l7 63 13 -80 c8 -44 28 -120 44 -170z m-7414 70 c41 -174 125 -317
235 -400 32 -24 71 -46 88 -50 35 -8 40 -25 8 -25 -38 -1 -104 -36 -147 -79
-76 -76 -122 -198 -137 -364 l-7 -78 -24 92 c-59 227 -196 450 -308 501 -24
11 -24 11 23 33 26 12 62 39 81 60 69 79 133 255 148 410 l7 70 8 -50 c5 -27
16 -81 25 -120z m899 50 c55 -282 235 -509 471 -590 56 -20 62 -24 36 -24 -17
-1 -58 -9 -91 -19 -197 -62 -331 -257 -350 -510 l-7 -87 -23 86 c-28 104 -94
253 -148 334 -84 128 -226 253 -307 271 -32 7 -31 7 27 26 119 39 201 118 271
263 47 95 79 203 91 307 5 35 9 54 11 43 2 -11 11 -56 19 -100z m7795 -120
c60 -201 180 -348 322 -392 l55 -16 -57 -27 c-188 -90 -361 -347 -425 -632
l-23 -102 -6 120 c-8 168 -46 278 -135 390 -68 87 -210 163 -305 165 -26 0
-20 4 36 24 235 81 413 303 471 587 9 42 16 87 17 100 1 13 7 -15 15 -62 8
-46 24 -116 35 -155z m899 20 c25 -98 76 -208 121 -260 19 -21 55 -48 81 -60
l47 -22 -25 -12 c-110 -50 -226 -223 -296 -443 l-33 -103 -7 70 c-9 93 -24
148 -59 222 -36 76 -121 157 -182 174 -72 19 -74 21 -47 29 41 12 109 58 157
107 91 94 168 268 195 439 l13 79 7 -70 c5 -38 17 -106 28 -150z m640 -62 c12
-36 30 -83 40 -104 18 -35 66 -83 91 -91 7 -2 -7 -22 -33 -46 -25 -24 -62 -73
-82 -111 -40 -77 -98 -244 -118 -341 l-13 -65 -6 115 c-9 186 -63 309 -155
356 l-41 20 38 22 c99 57 179 214 215 423 l18 104 12 -107 c7 -59 22 -138 34
-175z m-11281 67 c25 -101 62 -178 107 -224 20 -20 35 -39 33 -40 -2 -2 -14
-9 -27 -15 -28 -15 -66 -90 -81 -159 -6 -29 -11 -97 -12 -150 l-1 -97 -24 110
c-37 172 -94 318 -140 356 -13 10 -12 15 10 38 34 35 63 124 77 230 20 161 21
164 30 93 4 -35 17 -99 28 -142z m422 30 c35 -154 117 -295 198 -342 l38 -22
-48 -23 c-87 -44 -130 -135 -153 -325 -11 -97 -12 -100 -19 -58 -12 71 -74
246 -113 321 -20 38 -57 87 -82 111 -26 24 -40 44 -33 46 78 26 149 190 168
387 l7 80 9 -45 c4 -25 17 -83 28 -130z m11284 -119 c9 -29 30 -67 46 -85 l28
-33 -23 -22 c-32 -30 -80 -138 -110 -246 -47 -175 -44 -169 -45 -88 -2 130
-44 258 -93 284 -13 6 -25 13 -27 15 -2 1 13 20 33 40 64 66 118 214 133 364
l7 65 17 -121 c9 -66 24 -144 34 -173z m-11974 25 c12 -37 33 -81 46 -96 l23
-28 -24 -36 c-30 -45 -46 -114 -47 -214 -1 -75 -1 -76 -11 -32 -28 134 -62
250 -83 287 -19 35 -21 44 -10 53 18 15 42 123 51 230 l7 85 13 -90 c8 -49 23
-121 35 -159z m12220 74 c12 -78 35 -150 49 -150 5 0 -2 -19 -15 -43 -24 -42
-68 -201 -82 -293 -7 -47 -8 -45 -14 41 -7 115 -25 188 -53 218 l-22 24 22 26
c33 38 63 127 82 241 14 84 17 94 19 56 2 -25 8 -79 14 -120z m-5200 59 c42
-163 114 -286 243 -414 137 -136 252 -197 440 -234 l88 -17 -66 -12 c-154 -29
-320 -118 -450 -242 -95 -91 -152 -168 -206 -281 -62 -130 -82 -221 -83 -369
0 -188 39 -312 147 -457 104 -142 330 -263 491 -263 67 0 61 -12 -17 -33 -327
-84 -631 -365 -686 -632 -5 -26 -7 -21 -18 38 -51 275 -331 498 -680 543 l-59
7 76 13 c436 75 747 444 726 863 -6 134 -24 199 -89 331 -45 93 -62 116 -152
206 -146 146 -294 225 -484 258 l-77 13 70 12 c274 47 506 205 646 442 43 73
109 246 109 288 0 39 12 16 31 -60z m5359 -19 c0 -36 5 -84 10 -107 8 -33 6
-60 -10 -125 -10 -46 -22 -108 -27 -138 l-7 -55 -13 103 c-7 57 -17 110 -23
117 -7 9 -6 23 5 49 20 48 45 167 46 219 1 69 17 13 19 -63z m-12580 48 c0
-57 24 -168 45 -208 12 -24 14 -35 5 -45 -7 -8 -17 -62 -23 -120 l-12 -107
-13 84 c-7 45 -20 108 -29 140 -12 45 -13 66 -4 108 6 28 11 82 11 120 0 40 4
70 10 70 6 0 10 -19 10 -42z m133 -1042 c15 -31 22 -58 16 -61 -5 -4 -9 -45
-9 -93 l-1 -87 -34 117 c-19 64 -41 133 -49 153 -9 21 -13 42 -10 47 4 6 7 54
6 107 l0 96 28 -112 c15 -62 39 -137 53 -167z m12371 187 c-3 -43 -2 -88 3
-101 6 -16 -1 -54 -29 -140 -21 -64 -44 -139 -51 -167 -14 -50 -14 -50 -9 41
3 52 0 99 -5 109 -8 14 -4 32 14 72 14 29 36 101 51 158 14 58 27 105 28 105
2 0 1 -35 -2 -77z m-168 -92 c0 -94 3 -124 17 -144 16 -25 16 -28 -18 -94 -19
-37 -53 -124 -76 -193 -23 -69 -42 -126 -43 -127 0 -1 -1 48 -1 109 0 99 -2
112 -21 126 -20 16 -20 16 13 71 44 73 87 188 109 289 9 45 18 82 19 82 0 0 1
-53 1 -119z m-12082 -14 c27 -102 79 -225 113 -266 l19 -24 -24 -24 c-23 -23
-24 -29 -21 -136 l4 -112 -46 140 c-25 77 -60 168 -78 203 -30 60 -31 63 -15
88 13 19 17 50 18 129 1 57 2 103 2 102 1 -1 14 -46 28 -100z m320 -202 c37
-96 91 -190 136 -235 l38 -38 -29 -6 c-47 -9 -68 -68 -69 -186 l-1 -95 -34 95
c-47 127 -104 245 -148 303 -42 53 -43 57 -22 57 38 0 71 146 62 274 l-6 81
23 -90 c13 -49 36 -121 50 -160z m11494 -56 c6 -15 22 -35 36 -46 l25 -20 -24
-23 c-35 -33 -122 -206 -166 -330 l-37 -105 4 90 c6 114 -15 182 -61 204 l-30
14 37 38 c20 21 54 69 75 106 36 65 111 267 114 308 1 11 5 -32 9 -95 4 -63
12 -127 18 -141z m-12041 149 c-3 -8 -6 -5 -6 6 -1 11 2 17 5 13 3 -3 4 -12 1
-19z m11620 -299 c24 -54 59 -89 87 -89 16 0 11 -10 -31 -52 -88 -91 -190
-272 -242 -430 -13 -38 -23 -68 -24 -68 -1 0 -2 53 -2 118 0 99 -3 123 -21
156 -24 47 -59 76 -105 85 l-33 7 38 23 c55 34 150 159 201 264 41 85 93 241
97 291 1 11 4 -42 8 -119 5 -110 11 -150 27 -186z m-10678 208 c54 -198 160
-376 275 -459 38 -27 38 -28 12 -28 -36 0 -79 -23 -100 -54 -31 -48 -49 -144
-42 -231 l6 -80 -25 70 c-62 174 -186 389 -262 455 -32 28 -32 30 -10 30 31 0
65 33 88 85 21 47 39 198 32 260 -8 58 2 41 26 -48z m711 -332 c82 -168 186
-286 311 -355 51 -28 52 -30 24 -30 -86 -1 -165 -54 -207 -138 -19 -40 -23
-63 -23 -154 0 -59 -3 -104 -6 -100 -3 4 -14 30 -24 57 -69 192 -248 446 -363
517 l-37 23 43 7 c57 10 93 37 125 96 36 66 57 160 57 262 l1 85 25 -85 c14
-47 47 -130 74 -185z m9337 -48 c38 -84 83 -120 162 -129 21 -3 17 -8 -33 -42
-115 -79 -248 -266 -332 -466 l-23 -55 -1 47 c-1 182 -94 307 -227 308 l-38 0
53 31 c70 41 153 118 214 199 56 73 140 239 160 314 l13 48 13 -98 c8 -60 23
-121 39 -157z m-939 116 c-1 -282 103 -453 286 -473 46 -5 56 -9 41 -15 -48
-20 -157 -97 -219 -155 -119 -112 -260 -325 -307 -465 l-14 -40 -6 100 c-4 72
-12 114 -27 149 -55 123 -156 193 -296 203 l-76 6 55 23 c102 41 169 88 270
189 150 151 248 334 278 521 6 41 12 74 13 74 1 0 2 -53 2 -117z m-7481 -242
c111 -200 264 -347 439 -421 l64 -27 -72 -10 c-40 -6 -95 -21 -123 -34 -131
-62 -205 -210 -192 -389 5 -72 5 -73 -8 -35 -56 177 -174 365 -315 504 -65 64
-201 161 -226 161 -7 0 -15 3 -17 8 -3 4 18 8 46 9 61 3 146 42 182 84 71 85
115 216 115 348 l1 76 35 -104 c19 -58 51 -134 71 -170z m9753 53 c-5 -32 -9
-72 -9 -89 1 -16 -26 -95 -60 -175 l-60 -145 6 63 c4 40 2 62 -5 62 -5 0 7 33
28 73 20 40 52 119 71 175 18 56 34 100 36 99 1 -2 -2 -30 -7 -63z m-12045
-202 c23 -49 32 -79 26 -89 -4 -8 -4 -36 1 -61 4 -25 7 -47 5 -48 -1 -2 -28
61 -60 139 -44 107 -59 157 -61 202 -2 33 -6 74 -10 90 -4 17 9 -12 28 -64 20
-52 51 -128 71 -169z m8562 -52 c80 -165 237 -268 413 -270 l55 -1 -72 -28
c-254 -100 -494 -338 -599 -594 l-33 -82 -1 50 c-2 253 -207 445 -506 473
l-79 8 73 18 c149 37 318 138 436 260 101 104 200 276 232 401 7 26 10 17 26
-65 11 -56 34 -126 55 -170z m-8378 -84 c22 -44 56 -103 75 -131 35 -48 35
-50 15 -57 -20 -8 -21 -14 -16 -81 2 -39 8 -81 11 -92 8 -24 -1 -6 -73 150
-30 66 -69 145 -87 175 -30 50 -31 56 -17 72 13 14 14 31 9 85 -4 38 -9 79
-12 93 -3 14 9 -10 25 -54 17 -43 48 -115 70 -160z m4930 182 c29 -128 141
-305 256 -402 125 -108 317 -195 470 -215 l60 -7 -75 -13 c-314 -55 -551 -231
-631 -469 -33 -97 -32 -231 3 -328 84 -236 324 -415 623 -467 l80 -13 -60 -8
c-102 -12 -216 -46 -310 -91 -317 -152 -363 -444 -101 -641 107 -81 227 -128
401 -158 l70 -12 -70 -7 c-39 -4 -107 -16 -150 -27 -494 -126 -427 -478 110
-576 l100 -18 -95 -12 c-215 -26 -349 -88 -375 -173 l-7 -23 -17 28 c-27 44
-85 91 -159 128 -72 36 -235 91 -304 103 -39 6 -34 8 60 19 131 16 198 36 257
77 109 75 114 183 13 293 -87 96 -269 192 -451 238 l-89 23 79 7 c254 23 407
118 442 278 23 101 -24 221 -131 333 -117 124 -282 219 -474 273 l-98 27 89 7
c319 27 525 219 525 490 0 101 -21 182 -71 279 -114 219 -353 402 -619 473
l-85 23 65 7 c99 11 177 33 270 78 115 55 237 176 297 293 41 80 73 175 73
214 0 39 17 21 29 -31z m6734 -58 c-5 -76 -4 -90 10 -96 13 -5 11 -13 -14 -54
-16 -26 -53 -99 -82 -161 -68 -146 -89 -189 -81 -164 3 11 9 51 11 88 5 63 4
69 -16 74 -25 6 -27 16 -7 32 36 30 137 230 167 329 7 23 13 42 15 42 1 0 0
-40 -3 -90z m-303 -150 c-14 -74 -12 -125 5 -166 12 -29 19 -35 36 -31 17 5
14 -2 -15 -38 -52 -63 -131 -193 -187 -308 -52 -107 -54 -108 -39 -27 7 35 7
65 0 90 -10 39 -25 50 -63 50 -18 0 -15 7 25 48 84 87 193 278 229 400 16 57
21 48 9 -18z m-11120 -22 c47 -131 138 -283 218 -365 l41 -42 -32 -3 c-43 -4
-59 -37 -53 -108 3 -30 8 -66 12 -80 3 -14 -21 28 -55 93 -63 122 -131 233
-183 300 -16 20 -23 35 -16 32 8 -3 23 3 33 15 15 16 18 35 17 101 0 44 -4 89
-7 99 -4 11 -4 20 -2 20 2 0 15 -28 27 -62z m505 -328 c57 -114 128 -211 218
-297 l82 -78 -41 0 c-52 0 -80 -24 -95 -78 -10 -37 -6 -103 8 -146 3 -9 -19
27 -49 79 -82 145 -153 245 -236 332 -41 43 -68 76 -59 72 30 -11 66 5 84 39
18 35 24 147 11 227 -8 45 -7 45 16 -15 13 -33 40 -94 61 -135z m10154 100
c-12 -70 -2 -149 22 -189 16 -26 25 -31 56 -31 l38 0 -41 -38 c-80 -72 -160
-180 -254 -343 l-55 -95 0 82 c0 73 -3 85 -24 108 -20 21 -34 26 -74 26 l-50
0 39 29 c127 93 271 304 338 495 12 34 14 12 5 -44z m-10834 -305 c17 -29 30
-64 30 -87 1 -35 -6 -25 -66 93 -37 72 -69 148 -72 168 -3 20 -8 45 -12 56 -3
11 16 -25 43 -80 27 -55 61 -123 77 -150z m11565 211 c-5 -15 -10 -37 -10 -49
0 -12 -34 -87 -76 -167 -62 -121 -81 -149 -57 -84 2 7 0 15 -5 18 -6 3 11 40
37 84 25 42 61 112 80 155 19 43 36 76 38 74 2 -3 -1 -16 -7 -31z m-10131
-413 c76 -101 190 -207 276 -258 36 -21 65 -38 65 -39 0 0 -25 1 -56 2 -267
17 -232 -336 64 -659 61 -67 191 -171 270 -217 34 -19 47 -31 32 -28 -84 17
-138 10 -171 -23 -34 -34 -38 -74 -14 -142 19 -52 20 -53 -46 46 -62 94 -276
312 -366 375 -35 23 -63 44 -63 45 0 1 26 -1 58 -3 56 -4 60 -3 85 28 22 26
27 41 27 87 0 114 -84 298 -215 471 -70 93 -207 235 -270 279 l-30 21 48 0
c98 -2 142 64 142 212 l0 95 51 -105 c28 -58 79 -142 113 -187z m8738 184 c1
-133 50 -202 145 -202 26 0 44 -2 40 -6 -191 -150 -296 -271 -406 -464 l-41
-72 3 74 c5 84 -6 118 -49 159 -27 25 -39 29 -106 32 l-75 4 51 29 c151 82
311 260 400 447 19 40 36 72 36 72 1 0 2 -33 2 -73z m-9906 -266 c49 -69 54
-80 38 -84 -23 -6 -24 -21 -4 -76 8 -22 12 -41 10 -41 -2 0 -22 35 -46 78 -23
42 -73 126 -110 185 -38 59 -64 105 -59 102 25 -15 22 46 -6 131 -3 11 23 -34
58 -99 34 -64 88 -153 119 -196z m11079 248 c-13 -43 -13 -86 0 -91 5 -1 -15
-40 -44 -85 -30 -45 -75 -121 -102 -168 -26 -46 -49 -84 -50 -82 -2 1 1 20 6
42 10 45 5 59 -21 52 -12 -3 -4 14 29 57 49 64 124 187 163 268 26 54 33 57
19 7z m-9173 -81 c-3 -8 -6 -5 -6 6 -1 11 2 17 5 13 3 -3 4 -12 1 -19z m87
-213 c115 -198 307 -373 495 -450 l54 -22 -94 -5 c-81 -3 -102 -8 -148 -33
-75 -41 -103 -87 -111 -178 l-5 -72 -22 40 c-86 162 -315 390 -483 479 l-63
34 80 3 c100 5 149 33 190 112 26 48 28 61 28 168 l0 117 25 -72 c14 -39 38
-94 54 -121z m7047 -91 c15 -29 42 -61 68 -79 36 -25 54 -30 118 -33 l75 -4
-51 -28 c-175 -96 -365 -282 -474 -463 l-35 -57 -4 70 c-3 57 -9 77 -33 112
-46 65 -109 92 -222 96 l-93 4 81 39 c111 54 181 102 268 184 113 107 201 233
247 350 l19 50 6 -97 c4 -75 11 -107 30 -144z m-8735 -74 c29 -41 80 -103 113
-137 53 -56 56 -61 32 -57 -49 10 -64 -43 -36 -121 4 -11 -28 34 -72 100 -43
66 -109 157 -146 202 -61 74 -65 82 -44 85 20 3 22 9 22 58 0 30 -3 69 -8 85
-4 17 13 -8 38 -55 26 -47 71 -119 101 -160z m10434 166 c-16 -72 -4 -102 38
-97 7 1 -15 -31 -48 -71 -50 -59 -137 -184 -227 -324 -6 -11 -4 4 4 33 13 42
14 57 5 78 -11 23 -17 26 -42 20 -29 -6 -27 -3 31 57 61 63 173 222 219 310
13 26 26 46 28 44 1 -2 -2 -24 -8 -50z m-2911 -318 c29 -61 93 -122 160 -155
44 -22 74 -28 154 -32 l100 -6 -81 -33 c-225 -92 -459 -291 -556 -472 l-33
-61 -1 52 c-4 173 -182 298 -426 299 -44 0 -77 3 -74 6 3 3 32 12 65 20 90 23
272 117 354 182 126 100 226 226 271 344 l23 58 11 -78 c6 -42 21 -98 33 -124z
m-4575 -12 c115 -161 297 -291 507 -360 l104 -35 -76 -1 c-132 0 -263 -44
-348 -115 -42 -36 -81 -121 -84 -183 -1 -29 -3 -52 -4 -52 -2 0 -10 16 -18 36
-41 99 -169 243 -306 344 -77 57 -286 170 -314 170 -8 0 -16 3 -18 8 -3 4 32
7 76 7 202 1 338 108 369 292 l12 74 28 -62 c15 -33 48 -89 72 -123z m-2456
-138 c51 -65 161 -174 220 -219 l34 -26 -54 5 c-70 6 -82 -8 -76 -85 5 -55 4
-57 -11 -33 -54 82 -150 200 -244 297 -92 95 -104 111 -78 103 48 -13 75 14
75 76 0 27 -4 63 -8 79 -4 18 12 -2 42 -52 27 -45 72 -110 100 -145z m9455
143 c-5 -62 -3 -71 17 -91 16 -16 29 -21 51 -16 25 5 20 -4 -49 -72 -80 -80
-168 -184 -239 -285 l-42 -58 6 53 c7 71 -14 93 -83 85 l-47 -5 34 25 c106 79
319 335 344 412 11 37 14 22 8 -48z m-3913 -126 c47 -95 133 -175 241 -224 78
-35 139 -49 244 -59 l79 -7 -98 -27 c-276 -78 -519 -258 -586 -436 l-17 -44
-12 48 c-17 69 -52 124 -116 182 -102 93 -232 150 -415 181 l-105 18 58 7
c207 26 430 143 543 284 51 64 110 178 121 232 6 34 7 33 19 -30 8 -36 27 -92
44 -125z m-6017 -148 c36 -42 52 -67 42 -67 -18 0 -19 -14 -5 -41 24 -43 -2
-13 -71 84 -40 56 -90 124 -111 152 -22 29 -33 52 -27 56 7 4 5 19 -5 44 -9
20 -16 40 -16 43 0 3 31 -41 68 -99 37 -57 94 -134 125 -172z m10447 227 c-14
-36 -13 -57 3 -48 6 5 0 -8 -14 -27 -14 -18 -63 -86 -109 -149 -87 -121 -110
-149 -91 -113 17 33 14 45 -10 38 -14 -5 -2 16 41 67 34 40 90 115 124 165 33
51 62 93 63 93 1 0 -2 -12 -7 -26z m-1182 -240 c-12 -57 -4 -106 25 -140 19
-22 31 -26 75 -26 29 1 58 4 65 8 22 13 -6 -10 -86 -71 -101 -75 -238 -213
-312 -314 -33 -44 -61 -79 -62 -77 -1 1 2 17 7 36 28 97 -50 158 -170 132 -35
-8 -41 -8 -26 1 97 59 178 120 246 184 83 78 186 206 221 274 10 21 21 39 23
39 2 0 -1 -21 -6 -46z m-8935 -242 c39 -46 95 -106 126 -133 55 -49 55 -50 18
-34 -33 14 -38 14 -43 0 -4 -8 -3 -27 0 -43 l6 -27 -22 30 c-34 44 -134 163
-205 242 -56 63 -60 70 -36 65 25 -5 26 -3 20 29 -3 19 -9 43 -13 54 -4 11 12
-7 36 -40 23 -33 74 -97 113 -143z m9758 170 c-12 -23 -15 -65 -5 -75 4 -3 16
-1 28 5 11 6 -13 -27 -55 -73 -41 -46 -108 -124 -148 -174 -41 -49 -75 -92
-77 -94 -2 -3 1 10 7 28 15 43 1 60 -39 45 -19 -8 1 17 68 86 53 54 125 139
160 188 35 50 66 90 68 87 2 -2 -1 -12 -7 -23z m-9881 -279 c24 -31 75 -89
113 -130 47 -50 67 -77 60 -84 -12 -12 -216 223 -218 252 -1 10 -1 19 0 19 2
0 22 -25 45 -57z m9902 33 c-11 -39 -200 -256 -217 -249 -11 4 2 24 52 77 38
39 90 99 117 134 27 34 50 62 52 62 1 0 -1 -11 -4 -24z m-8048 -174 c89 -93
206 -178 326 -236 l105 -51 -95 0 c-75 0 -103 -4 -134 -20 -53 -27 -78 -64
-80 -115 l-1 -42 -25 33 c-90 122 -269 273 -435 369 -49 29 -83 50 -74 47 44
-15 110 -18 150 -7 78 21 119 76 119 161 l0 52 41 -63 c23 -35 69 -93 103
-128z m6340 29 c41 -43 76 -54 159 -49 l74 3 -79 -45 c-157 -90 -322 -228
-416 -348 l-42 -54 0 47 c0 40 -5 52 -33 80 -44 44 -101 58 -207 53 -61 -3
-77 -2 -60 5 219 87 414 237 520 400 l45 68 6 -65 c5 -54 11 -72 33 -95z
m-7518 -152 c55 -52 124 -112 154 -133 30 -21 46 -35 35 -31 -83 30 -129 9
-107 -48 6 -17 10 -32 9 -33 -1 -2 -25 24 -52 56 -50 62 -206 217 -285 284
-25 22 -36 36 -25 31 69 -26 90 -12 81 54 l-6 44 49 -64 c26 -35 93 -107 147
-160z m8694 182 c-14 -50 3 -75 46 -68 32 5 25 -3 -97 -121 -73 -70 -153 -152
-179 -183 l-47 -57 5 44 c4 40 3 43 -22 50 -14 3 -40 1 -57 -5 -18 -6 -34 -11
-36 -11 -2 0 31 26 74 59 85 64 228 208 282 283 19 27 36 47 38 45 1 -2 -2
-18 -7 -36z m-6415 -287 c96 -111 287 -226 465 -278 l85 -25 -83 0 c-212 -2
-362 -84 -362 -200 l0 -34 -30 46 c-84 125 -320 291 -515 362 -27 10 -53 21
-57 24 -4 3 41 6 100 7 90 0 114 4 154 23 85 41 137 120 138 206 0 28 2 27 30
-24 16 -29 50 -77 75 -107z m4089 28 c21 -41 65 -78 121 -104 41 -19 68 -23
152 -23 56 0 101 -1 100 -1 -1 -1 -46 -20 -100 -42 -217 -91 -385 -216 -492
-367 -14 -19 -14 -19 -15 8 -1 113 -126 186 -335 197 -92 4 -104 6 -70 13 80
17 242 88 330 145 106 69 199 160 246 241 l34 59 7 -50 c5 -27 14 -61 22 -76z
m2480 53 c-17 -26 -12 -47 11 -39 8 3 -45 -54 -118 -128 -73 -73 -133 -127
-135 -120 -4 14 -17 15 -40 3 -10 -5 52 62 138 149 85 87 156 158 158 159 1 1
-5 -10 -14 -24z m-9049 -140 c22 -23 67 -64 100 -94 50 -44 55 -51 33 -46 -31
8 -33 4 -17 -28 6 -12 -39 31 -101 95 -61 65 -130 133 -153 152 -34 28 -37 34
-18 29 22 -6 23 -4 17 22 -6 24 1 19 46 -31 29 -32 71 -77 93 -99z m736 -19
c82 -105 216 -218 347 -293 l77 -44 -45 6 c-25 4 -51 8 -58 11 -25 7 -74 -9
-88 -31 -11 -17 -12 -29 -4 -51 9 -23 -4 -14 -57 42 -82 84 -225 204 -316 264
-37 24 -65 45 -64 46 1 2 22 -2 45 -8 53 -13 88 0 102 38 10 24 7 44 -14 109
-7 19 -7 19 6 1 7 -10 38 -51 69 -90z m4484 -36 c58 -113 206 -185 420 -206
l70 -7 -88 -23 c-224 -60 -432 -186 -492 -297 l-19 -35 -21 46 c-12 26 -39 62
-60 81 -79 69 -256 133 -410 148 l-70 7 80 13 c255 44 461 169 533 325 l27 60
7 -40 c4 -22 14 -55 23 -72z m3007 52 c-6 -63 18 -87 80 -79 24 2 52 8 63 12
11 4 -16 -18 -60 -48 -102 -71 -257 -200 -312 -260 l-42 -45 -3 31 c-5 49 -40
64 -120 50 -34 -6 -65 -9 -66 -7 -2 1 18 14 45 27 116 60 300 213 379 317 21
27 39 50 40 50 0 0 -1 -21 -4 -48z m-7683 -356 c42 -35 103 -83 136 -106 33
-24 51 -40 40 -36 -11 4 -35 10 -54 13 -32 6 -34 5 -29 -19 4 -22 -16 -8 -114
78 -66 58 -144 123 -174 145 -30 23 -54 43 -54 45 0 2 12 -1 27 -7 50 -19 61
-3 37 56 -4 11 18 -8 50 -43 32 -34 93 -91 135 -126z m7991 148 c-6 -14 -8
-30 -4 -35 7 -12 41 -11 65 1 35 19 20 3 -38 -41 -32 -24 -113 -92 -181 -152
-68 -60 -118 -99 -112 -87 19 36 -1 45 -57 27 -40 -13 -45 -13 -28 -1 11 8 56
41 100 73 44 33 121 99 170 149 50 49 91 90 92 91 1 0 -2 -11 -7 -25z m-8222
-166 c34 -32 87 -76 117 -99 30 -23 55 -42 55 -44 0 -1 -9 -1 -19 0 -25 2
-263 204 -255 217 7 11 18 3 102 -74z m1467 -127 c62 -43 181 -105 285 -149
19 -8 6 -9 -55 -5 -131 9 -199 -22 -197 -87 1 -30 -1 -30 -82 47 -90 86 -183
151 -322 228 l-92 51 89 -4 c87 -4 88 -4 119 26 22 23 30 40 30 66 l0 36 75
-79 c42 -44 109 -102 150 -130z m5611 108 c23 -21 35 -24 112 -24 l87 0 -109
-62 c-124 -71 -274 -182 -334 -247 -39 -42 -41 -43 -36 -17 4 21 -1 35 -19 57
l-25 29 -119 0 -119 0 85 36 c155 65 292 158 390 265 l56 62 3 -38 c2 -24 12
-46 28 -61z m1305 87 c5 3 9 3 9 1 0 -12 -234 -203 -256 -209 -13 -3 -24 -5
-24 -4 0 1 35 30 78 64 42 33 99 84 127 112 27 28 51 46 53 40 2 -5 8 -8 13
-4z m-7562 -320 c82 -69 151 -115 264 -177 40 -22 59 -36 42 -32 -16 4 -55 8
-85 8 -49 0 -55 -2 -58 -22 -3 -19 -11 -15 -85 45 -45 36 -127 95 -183 131
-56 36 -110 72 -120 79 -18 13 -18 13 1 6 85 -27 131 -12 121 40 -5 31 -5 31
11 8 9 -12 50 -51 92 -86z m1596 -49 c72 -60 213 -133 315 -165 36 -11 81 -25
100 -31 l35 -10 -40 3 c-67 6 -215 -13 -260 -33 -50 -22 -85 -57 -85 -85 0
-18 -3 -17 -25 10 -54 69 -296 207 -460 263 l-60 21 71 -6 c160 -14 284 48
284 141 0 28 0 27 30 -13 16 -23 59 -66 95 -95z m3604 45 c7 -13 38 -36 69
-50 49 -22 70 -26 156 -25 l98 0 -73 -27 c-171 -63 -318 -147 -406 -233 -39
-38 -53 -47 -53 -33 0 10 -15 33 -33 51 -45 45 -126 68 -250 69 -54 0 -90 4
-80 7 10 4 59 19 108 34 171 53 332 151 404 247 l36 49 6 -33 c3 -18 11 -44
18 -56z m1538 74 c-3 -8 0 -22 7 -32 10 -13 22 -16 57 -12 24 3 53 9 64 13 11
4 -41 -33 -115 -82 -74 -49 -163 -112 -196 -141 -57 -47 -62 -49 -67 -30 -5
19 -11 20 -82 16 l-76 -5 72 39 c98 53 205 128 275 193 64 59 69 62 61 41z
m-6935 -229 c59 -39 105 -73 104 -75 -2 -1 -16 2 -31 8 -17 7 -31 7 -34 1 -5
-7 -191 120 -291 200 -21 17 -22 18 -3 9 34 -16 45 -13 37 12 -5 16 9 8 52
-31 33 -29 107 -85 166 -124z m7251 153 c-6 -22 7 -25 40 -10 19 9 18 8 -3 -9
-100 -80 -286 -207 -291 -200 -3 6 -17 6 -34 -1 -15 -6 -29 -9 -31 -7 -2 1 36
29 85 60 48 32 121 87 162 122 41 35 75 64 76 64 0 1 -1 -8 -4 -19z m-3035
-158 c64 -63 176 -99 324 -104 42 -2 74 -5 72 -7 -2 -2 -54 -17 -116 -32 -143
-36 -299 -111 -359 -173 l-43 -44 -18 29 c-41 67 -175 121 -350 143 -92 11
-99 14 -63 20 260 46 424 124 480 231 l20 36 9 -32 c6 -18 25 -48 44 -67z
m-3166 -159 c78 -54 187 -111 283 -150 59 -23 60 -23 16 -17 -124 18 -222 -3
-207 -43 3 -8 -11 -2 -31 15 -67 52 -178 120 -300 183 -65 34 -107 58 -93 55
61 -15 136 -17 160 -4 20 11 25 21 25 54 l0 41 37 -42 c20 -23 70 -64 110 -92z
m5081 94 c-10 -50 58 -73 167 -55 39 7 31 1 -72 -52 -138 -70 -241 -135 -299
-187 -32 -29 -40 -33 -35 -17 12 39 -24 57 -109 56 -42 0 -90 -3 -108 -6 -19
-4 -11 2 22 14 144 53 299 142 386 223 28 25 51 46 51 47 1 0 -1 -10 -3 -23z
m-5443 -262 c58 -31 94 -54 80 -50 -59 15 -102 17 -109 7 -4 -7 -32 6 -76 34
-39 25 -114 70 -168 101 -98 56 -117 72 -58 52 36 -13 61 -6 61 15 0 10 29 -6
83 -44 45 -33 129 -85 187 -115z m5981 142 c24 6 45 10 47 9 1 -2 -41 -28 -95
-59 -54 -31 -129 -76 -168 -101 -44 -28 -72 -41 -76 -34 -7 10 -50 7 -109 -7
-14 -4 25 20 87 53 61 33 142 82 180 109 59 43 69 48 80 34 9 -13 18 -14 54
-4z m-1479 -154 c28 -30 107 -47 194 -40 41 3 74 4 74 2 0 -2 -37 -16 -82 -31
-110 -36 -258 -105 -319 -149 l-48 -35 -24 24 c-31 30 -104 46 -220 46 l-92 1
90 24 c159 41 304 113 370 184 26 28 31 30 33 14 2 -10 13 -28 24 -40z m-3169
-57 c73 -41 174 -81 272 -106 l70 -19 -80 -1 c-134 -1 -235 -34 -235 -77 0 -9
-15 -1 -41 21 -54 46 -169 105 -294 150 -55 20 -108 40 -118 44 -10 4 26 6 80
4 117 -4 169 10 197 53 l19 30 34 -32 c19 -18 62 -48 96 -67z m999 -79 c71
-55 208 -100 348 -115 l65 -8 -112 -12 c-132 -15 -230 -43 -272 -77 l-29 -25
-52 34 c-58 38 -194 86 -315 111 -44 9 -81 18 -84 21 -2 2 32 4 77 4 156 0
272 42 300 110 l17 38 11 -28 c7 -15 27 -39 46 -53z m1120 -9 c43 -28 139 -51
238 -57 l95 -6 -125 -31 c-131 -32 -263 -87 -299 -123 -29 -29 -27 -67 5 -88
35 -22 132 -42 219 -44 39 -1 59 -4 45 -6 -82 -14 -253 -59 -297 -79 -48 -21
-56 -21 -80 -9 -37 19 -114 35 -215 43 l-83 7 101 17 c160 27 274 80 274 128
0 26 -51 65 -112 86 -28 9 -106 25 -172 34 -68 10 -103 18 -81 19 139 5 344
78 400 142 l30 35 16 -26 c9 -14 27 -33 41 -42z m1723 52 c-21 -34 59 -52 134
-30 36 10 58 5 25 -6 -48 -16 -274 -124 -318 -151 -44 -28 -51 -30 -65 -16
-12 13 -31 14 -96 10 l-80 -6 96 38 c106 41 202 93 264 140 44 33 49 36 40 21z
m-5155 -15 c14 0 56 -18 94 -39 38 -21 106 -56 150 -78 45 -21 72 -36 61 -32
-11 3 -36 8 -56 11 -20 3 -101 39 -180 80 -79 40 -133 70 -119 66 14 -4 36 -7
50 -8z m583 -56 c71 -44 240 -118 269 -119 9 0 19 -4 22 -9 3 -4 -13 -5 -37 0
-66 13 -134 11 -149 -5 -12 -12 -20 -10 -54 11 -33 21 -228 117 -304 149 -20
9 -8 10 53 6 74 -4 78 -4 84 17 5 20 7 21 27 6 11 -8 51 -33 89 -56z m5097 66
c0 -10 -267 -140 -300 -146 -19 -3 -46 -9 -60 -13 -14 -3 20 15 75 42 55 27
124 63 152 80 29 17 59 29 66 26 7 -2 24 0 38 5 30 12 29 12 29 6z m-4222
-269 c60 -31 205 -79 272 -92 38 -8 26 -10 -84 -14 -102 -4 -131 -8 -139 -21
-8 -13 -18 -11 -75 19 -36 19 -122 54 -191 78 l-126 43 95 1 c100 0 140 14
140 47 0 13 6 11 28 -9 15 -14 51 -38 80 -52z m2831 33 c23 -17 42 -20 122
-20 l94 0 -112 -38 c-62 -21 -146 -55 -188 -75 -73 -34 -77 -35 -102 -19 -19
13 -50 17 -135 17 -60 0 -106 2 -101 3 4 2 52 14 105 27 96 24 259 93 272 115
10 15 12 14 45 -10z m-3344 -116 c66 -24 102 -41 80 -37 -22 4 -65 8 -95 10
-37 1 -85 15 -147 42 -51 22 -115 48 -143 57 -27 9 -50 18 -50 20 0 2 27 1 60
-2 38 -4 60 -2 60 5 0 5 26 -4 57 -21 32 -17 112 -51 178 -74z m4032 90 l58 6
-121 -48 c-66 -27 -131 -54 -144 -61 -12 -6 -52 -13 -89 -15 -36 -1 -77 -5
-91 -9 -42 -11 4 9 115 49 55 20 123 48 150 63 28 16 53 24 57 18 3 -5 32 -6
65 -3z m-2622 -87 c48 -33 118 -55 239 -76 81 -14 92 -18 55 -19 -69 -1 -216
-29 -251 -47 -27 -14 -32 -14 -72 6 -45 21 -194 62 -281 76 -48 8 -45 9 51 15
106 7 202 32 211 55 7 18 6 18 48 -10z m-780 -115 c28 -13 100 -36 160 -51
l110 -28 -110 -3 c-84 -3 -120 0 -150 12 -22 9 -94 31 -160 49 -66 18 -121 33
-123 35 -1 1 42 0 96 -3 70 -3 101 -1 107 7 4 7 10 10 13 9 4 -2 30 -14 57
-27z m2645 10 c101 4 98 2 -45 -37 -55 -15 -118 -34 -140 -43 -30 -12 -67 -15
-150 -13 l-110 3 112 29 c62 16 136 39 165 53 36 16 57 21 65 15 7 -6 53 -8
103 -7z m-1810 -96 c36 -18 158 -45 208 -45 20 0 44 -5 52 -10 10 -7 -12 -10
-72 -10 -48 0 -110 -5 -137 -11 -37 -8 -60 -8 -86 1 -19 6 -81 19 -137 29
l-103 18 88 6 c48 4 102 14 120 21 17 8 33 15 35 15 2 1 16 -6 32 -14z m856 5
c6 -6 55 -16 110 -21 54 -6 100 -11 101 -13 1 -1 -32 -8 -75 -15 -42 -7 -102
-19 -134 -28 -45 -12 -66 -13 -108 -4 -28 6 -87 11 -131 11 -51 0 -78 4 -74
10 3 5 27 10 53 10 58 0 173 24 210 43 35 19 36 19 48 7z m821 -26 c-3 -3 -12
-4 -19 -1 -8 3 -5 6 6 6 11 1 17 -2 13 -5z"/>
<path d="M6778 12783 c7 -3 16 -2 19 1 4 3 -2 6 -13 5 -11 0 -14 -3 -6 -6z"/>
<path d="M7568 12683 c7 -3 16 -2 19 1 4 3 -2 6 -13 5 -11 0 -14 -3 -6 -6z"/>
<path d="M9735 11855 c11 -9 29 -21 40 -26 l20 -10 -20 16 c-11 9 -29 21 -40
26 l-20 10 20 -16z"/>
<path d="M3024 11834 c-18 -14 -18 -15 4 -4 12 6 22 13 22 15 0 8 -5 6 -26
-11z"/>
<path d="M11830 9770 c6 -11 13 -20 16 -20 2 0 0 9 -6 20 -6 11 -13 20 -16 20
-2 0 0 -9 6 -20z"/>
</g>
</svg>
